<?xml version="1.0" encoding="UTF-8" standalone="no"?>
<svg
   xmlns:dc="http://purl.org/dc/elements/1.1/"
   xmlns:cc="http://creativecommons.org/ns#"
   xmlns:rdf="http://www.w3.org/1999/02/22-rdf-syntax-ns#"
   xmlns:svg="http://www.w3.org/2000/svg"
   xmlns="http://www.w3.org/2000/svg"
   xmlns:sodipodi="http://sodipodi.sourceforge.net/DTD/sodipodi-0.dtd"
   xmlns:inkscape="http://www.inkscape.org/namespaces/inkscape"
   enable-background="new 0 0 32 32"
   height="32px"
   id="Layer_1"
   version="1.1"
   viewBox="0 0 32 32"
   width="32px"
   xml:space="preserve"
   inkscape:version="0.91 r13725"
   sodipodi:docname="bin-red.svg"><metadata
     id="metadata23"><rdf:RDF><cc:Work
         rdf:about=""><dc:format>image/svg+xml</dc:format><dc:type
           rdf:resource="http://purl.org/dc/dcmitype/StillImage" /></cc:Work></rdf:RDF></metadata><defs
     id="defs21" /><sodipodi:namedview
     pagecolor="#ffffff"
     bordercolor="#666666"
     borderopacity="1"
     objecttolerance="10"
     gridtolerance="10"
     guidetolerance="10"
     inkscape:pageopacity="0"
     inkscape:pageshadow="2"
     inkscape:window-width="1366"
     inkscape:window-height="672"
     id="namedview19"
     showgrid="false"
     inkscape:zoom="7.375"
     inkscape:cx="-23.322034"
     inkscape:cy="16"
     inkscape:window-x="0"
     inkscape:window-y="1"
     inkscape:window-maximized="1"
     inkscape:current-layer="g11" /><g
     id="g3"><polyline
       fill="none"
       points="   649,137.999 675,137.999 675,155.999 661,155.999  "
       stroke="#FFFFFF"
       stroke-linecap="round"
       stroke-linejoin="round"
       stroke-miterlimit="10"
       stroke-width="2"
       id="polyline5" /><polyline
       fill="none"
       points="   653,155.999 649,155.999 649,141.999  "
       stroke="#FFFFFF"
       stroke-linecap="round"
       stroke-linejoin="round"
       stroke-miterlimit="10"
       stroke-width="2"
       id="polyline7" /><polyline
       fill="none"
       points="   661,156 653,162 653,156  "
       stroke="#FFFFFF"
       stroke-linecap="round"
       stroke-linejoin="round"
       stroke-miterlimit="10"
       stroke-width="2"
       id="polyline9" /></g><g
     id="g11"><path
       d="M28,6h-6.382l-1.724-3.447C19.725,2.214,19.379,2,19,2h-6c-0.379,0-0.725,0.214-0.895,0.553L10.382,6H4   C3.448,6,3,6.448,3,7s0.448,1,1,1h20v20H8V11c0-0.552-0.448-1-1-1s-1,0.448-1,1v18c0,0.553,0.448,1,1,1h18c0.553,0,1-0.447,1-1V8h2   c0.553,0,1-0.448,1-1S28.553,6,28,6z M13.618,4h4.764l1,2h-6.764L13.618,4z"
       id="path13"
       style="fill:#ff0000;fill-opacity:1" /><path
       d="M14,24V14c0-0.552-0.448-1-1-1s-1,0.448-1,1v10c0,0.553,0.448,1,1,1S14,24.553,14,24z"
       id="path15"
       style="fill:#ff0000;fill-opacity:1" /><path
       d="M20,24V14c0-0.552-0.447-1-1-1s-1,0.448-1,1v10c0,0.553,0.447,1,1,1S20,24.553,20,24z"
       id="path17"
       style="fill:#ff0000;fill-opacity:1" /></g></svg>
