<?xml version="1.0" encoding="iso-8859-1"?>
<!DOCTYPE svg PUBLIC "-//W3C//DTD SVG 1.1//EN" "http://www.w3.org/Graphics/SVG/1.1/DTD/svg11.dtd">
<svg xmlns="http://www.w3.org/2000/svg" xmlns:xlink="http://www.w3.org/1999/xlink" version="1.1" viewBox="0 0 263.099 263.099" enable-background="new 0 0 263.099 263.099" width="512px" height="512px">
  <g>
    <path d="m78.067,124.884c-6.708,0-12.167,5.458-12.167,12.166v49.667c0,6.709 5.458,12.167 12.167,12.167h15c6.708,0 12.167-5.458 12.167-12.167v-49.667c0-6.708-5.458-12.166-12.167-12.166h-15zm15.167,61.833c0,0.092-0.075,0.167-0.167,0.167h-15c-0.092,0-0.167-0.075-0.167-0.167v-49.667c0-0.092 0.075-0.167 0.167-0.167h15c0.092,0 0.167,0.075 0.167,0.167v49.667z" fill="#FFFFFF"/>
    <path d="m139.067,97.55h-15c-6.708,0-12.167,5.458-12.167,12.167v77c0,6.709 5.458,12.167 12.167,12.167h15c6.708,0 12.167-5.458 12.167-12.167v-77c0-6.709-5.458-12.167-12.167-12.167zm.167,89.167c0,0.092-0.075,0.167-0.167,0.167h-15c-0.092,0-0.167-0.075-0.167-0.167v-77c0-0.092 0.075-0.167 0.167-0.167h15c0.092,0 0.167,0.075 0.167,0.167v77z" fill="#FFFFFF"/>
    <path d="m170.067,64.217c-6.708,0-12.167,5.458-12.167,12.167v110.333c0,6.709 5.458,12.167 12.167,12.167h15c6.708,0 12.167-5.458 12.167-12.167v-110.333c0-6.709-5.458-12.167-12.167-12.167h-15zm15.167,122.5c0,0.092-0.075,0.167-0.167,0.167h-15c-0.092,0-0.167-0.075-0.167-0.167v-110.333c0-0.092 0.075-0.167 0.167-0.167h15c0.092,0 0.167,0.075 0.167,0.167v110.333z" fill="#FFFFFF"/>
    <path d="m260.47,105.283c-0.661-3.247-3.826-5.341-7.077-4.682-3.247,0.661-5.343,3.83-4.682,7.077 9.287,45.609-8.969,92.86-46.508,120.377-25.596,18.764-57.172,26.402-88.921,21.513-31.746-4.89-59.562-21.68-78.325-47.276-18.762-25.596-26.402-57.175-21.512-88.921s21.68-59.562 47.275-78.324c25.596-18.764 57.178-26.403 88.921-21.513 31.315,4.824 58.801,21.233 77.551,46.246l-7.599-1.464c-3.251-0.625-6.4,1.502-7.026,4.757-0.627,3.254 1.503,6.4 4.757,7.026l22.281,4.292c0.376,0.073 0.756,0.108 1.135,0.108 1.19,0 2.364-0.354 3.364-1.031 1.317-0.893 2.227-2.271 2.528-3.834l4.292-22.281c0.627-3.254-1.503-6.4-4.757-7.026-3.255-0.627-6.4,1.503-7.026,4.757l-1.628,8.454c-20.656-28.08-51.203-46.497-86.043-51.864-34.917-5.382-69.664,3.036-97.845,23.694-28.18,20.657-46.662,51.262-52.041,86.176-5.378,34.914 3.037,69.661 23.694,97.842 20.658,28.181 51.263,46.663 86.176,52.041 6.883,1.061 13.759,1.584 20.581,1.584 27.778,0 54.637-8.694 77.262-25.279 41.304-30.277 61.391-82.266 51.173-132.449z" fill="#FFFFFF"/>
  </g>
</svg>
