<?xml version="1.0" encoding="UTF-8" standalone="no"?>
<svg
   xmlns:dc="http://purl.org/dc/elements/1.1/"
   xmlns:cc="http://creativecommons.org/ns#"
   xmlns:rdf="http://www.w3.org/1999/02/22-rdf-syntax-ns#"
   xmlns:svg="http://www.w3.org/2000/svg"
   xmlns="http://www.w3.org/2000/svg"
   xmlns:sodipodi="http://sodipodi.sourceforge.net/DTD/sodipodi-0.dtd"
   xmlns:inkscape="http://www.inkscape.org/namespaces/inkscape"
   version="1.1"
   viewBox="0 0 263.099 263.099"
   enable-background="new 0 0 263.099 263.099"
   width="512px"
   height="512px"
   id="svg2"
   inkscape:version="0.91 r13725"
   sodipodi:docname="stats.svg">
  <metadata
     id="metadata18">
    <rdf:RDF>
      <cc:Work
         rdf:about="">
        <dc:format>image/svg+xml</dc:format>
        <dc:type
           rdf:resource="http://purl.org/dc/dcmitype/StillImage" />
      </cc:Work>
    </rdf:RDF>
  </metadata>
  <defs
     id="defs16" />
  <sodipodi:namedview
     pagecolor="#ffffff"
     bordercolor="#666666"
     borderopacity="1"
     objecttolerance="10"
     gridtolerance="10"
     guidetolerance="10"
     inkscape:pageopacity="0"
     inkscape:pageshadow="2"
     inkscape:window-width="1366"
     inkscape:window-height="670"
     id="namedview14"
     showgrid="false"
     inkscape:zoom="1.0234375"
     inkscape:cx="256"
     inkscape:cy="256"
     inkscape:window-x="0"
     inkscape:window-y="1"
     inkscape:window-maximized="1"
     inkscape:current-layer="svg2"
     inkscape:object-paths="true"
     inkscape:snap-intersection-paths="true"
     inkscape:object-nodes="true"
     inkscape:snap-smooth-nodes="true"
     inkscape:snap-midpoints="true" />
  <g
     id="g4229">
    <path
       d="m 78.067,124.884 c -6.708,0 -12.167,5.458 -12.167,12.166 l 0,49.667 c 0,6.709 5.458,12.167 12.167,12.167 l 15,0 c 6.708,0 12.167,-5.458 12.167,-12.167 l 0,-49.667 c 0,-6.708 -5.458,-12.166 -12.167,-12.166 l -15,0 z m 15.167,61.833 c 0,0.092 -0.075,0.167 -0.167,0.167 l -15,0 c -0.092,0 -0.167,-0.075 -0.167,-0.167 l 0,-49.667 c 0,-0.092 0.075,-0.167 0.167,-0.167 l 15,0 c 0.092,0 0.167,0.075 0.167,0.167 l 0,49.667 z"
       id="path6"
       style="fill:#ffffff;fill-opacity:1"
       inkscape:connector-curvature="0" />
    <path
       d="m 139.067,97.55 -15,0 c -6.708,0 -12.167,5.458 -12.167,12.167 l 0,77 c 0,6.709 5.458,12.167 12.167,12.167 l 15,0 c 6.708,0 12.167,-5.458 12.167,-12.167 l 0,-77 c 0,-6.709 -5.458,-12.167 -12.167,-12.167 z m 0.167,89.167 c 0,0.092 -0.075,0.167 -0.167,0.167 l -15,0 c -0.092,0 -0.167,-0.075 -0.167,-0.167 l 0,-77 c 0,-0.092 0.075,-0.167 0.167,-0.167 l 15,0 c 0.092,0 0.167,0.075 0.167,0.167 l 0,77 z"
       id="path8"
       style="fill:#ffffff;fill-opacity:1"
       inkscape:connector-curvature="0" />
    <path
       d="m 170.067,64.217 c -6.708,0 -12.167,5.458 -12.167,12.167 l 0,110.333 c 0,6.709 5.458,12.167 12.167,12.167 l 15,0 c 6.708,0 12.167,-5.458 12.167,-12.167 l 0,-110.333 c 0,-6.709 -5.458,-12.167 -12.167,-12.167 l -15,0 z m 15.167,122.5 c 0,0.092 -0.075,0.167 -0.167,0.167 l -15,0 c -0.092,0 -0.167,-0.075 -0.167,-0.167 l 0,-110.333 c 0,-0.092 0.075,-0.167 0.167,-0.167 l 15,0 c 0.092,0 0.167,0.075 0.167,0.167 l 0,110.333 z"
       id="path10"
       style="fill:#ffffff;fill-opacity:1"
       inkscape:connector-curvature="0" />
    <path
       d="m 260.47,105.283 c -0.661,-3.247 -3.826,-5.341 -7.077,-4.682 -3.247,0.661 -5.343,3.83 -4.682,7.077 9.287,45.609 -8.969,92.86 -46.508,120.377 -25.596,18.764 -57.172,26.402 -88.921,21.513 C 81.536,244.678 53.72,227.888 34.957,202.292 16.195,176.696 8.555,145.117 13.445,113.371 18.335,81.625 35.125,53.809 60.72,35.047 86.316,16.283 117.898,8.644 149.641,13.534 c 31.315,4.824 58.801,21.233 77.551,46.246 10.321,-6.242 0,0 10.321,-6.242 C 216.857,25.458 186.31,7.041 151.47,1.674 116.553,-3.708 81.806,4.71 53.625,25.368 25.445,46.025 6.963,76.63 1.584,111.544 c -5.378,34.914 3.037,69.661 23.694,97.842 20.658,28.181 51.263,46.663 86.176,52.041 6.883,1.061 13.759,1.584 20.581,1.584 27.778,0 54.637,-8.694 77.262,-25.279 41.304,-30.277 61.391,-82.266 51.173,-132.449 z"
       id="path12"
       style="fill:#ffffff;fill-opacity:1"
       inkscape:connector-curvature="0"
       sodipodi:nodetypes="ccccccscscccscccssc" />
    <path
       d="m 246.04067,66.725128 c 1.63308,2.883221 0.6204,6.540616 -2.26453,8.177834 -2.88322,1.633084 -6.54475,0.618698 -8.17783,-2.264524 C 212.66089,32.13777 167.86932,8.4807671 121.48782,12.368943 89.86156,15.018961 61.028819,29.987451 40.289674,54.518843 19.553442,79.049012 9.5941591,109.97549 12.244925,141.60109 c 2.651526,31.62494 17.620468,60.46126 42.150645,81.19749 24.530177,20.73623 55.45665,30.69551 87.08084,28.04464 31.62626,-2.65001 60.46419,-17.62168 81.19815,-42.14989 20.45445,-24.19743 30.41494,-54.61986 28.13711,-85.79716 11.88324,-2.06739 0,0 11.88324,-2.06739 2.85362,34.7421 -8.09757,68.68877 -30.85449,95.61 -22.80517,26.98309 -54.54193,43.445 -89.36153,46.36342 C 107.6607,265.72072 73.626917,254.76845 46.648055,231.96358 19.669948,209.15806 3.2057786,177.42326 0.28661186,142.60433 -2.6318136,107.78472 8.3204588,73.750945 31.125224,46.773486 35.620633,41.454397 40.463965,36.545727 45.609918,32.067016 66.563345,13.830483 92.531253,2.755317 120.4859,0.41213273 171.51938,-3.8658876 220.80264,22.163001 246.04067,66.725128 Z"
       id="path12-9"
       style="fill:#ffffff;fill-opacity:1"
       inkscape:connector-curvature="0"
       sodipodi:nodetypes="ccccccscscccscccssc" />
  </g>
</svg>
